<svg id="Layer_1" data-name="Layer 1" xmlns="http://www.w3.org/2000/svg" width="89" height="89" viewBox="0 0 89 89"><defs><style>.cls-1{fill:#fff;}.cls-2,.cls-3{fill:none;stroke:#000;}.cls-2{stroke-width:10px;}.cls-3{stroke-width:8px;}</style></defs><g id="Group_10" data-name="Group 10"><g id="Rectangle_41" data-name="Rectangle 41"><rect class="cls-1" width="89" height="89" rx="26"/><rect class="cls-2" x="5" y="5" width="79" height="79" rx="21"/></g><g id="Ellipse_10" data-name="Ellipse 10"><circle class="cls-1" cx="45" cy="48" r="20"/><circle class="cls-3" cx="45" cy="48" r="16"/></g><g id="Path_12" data-name="Path 12"><path class="cls-1" d="M63.88,28.26a5.38,5.38,0,1,1,5.38-5.38A5.39,5.39,0,0,1,63.88,28.26Z"/><path d="M63.88,20a2.88,2.88,0,1,0,2.88,2.88A2.88,2.88,0,0,0,63.88,20m0-5A7.88,7.88,0,1,1,56,22.88,7.88,7.88,0,0,1,63.88,15Z"/></g></g></svg>
