<svg id="Layer_10" data-name="Layer 10" xmlns="http://www.w3.org/2000/svg" width="151.86mm" height="80.93mm" viewBox="0 0 430.47 229.42"><defs><style>.cls-1{fill:#231f20;}</style></defs><path class="cls-1" d="M115,65a213,213,0,0,1-7.35,49.44q-1.86,6.85-4.19,13.57c-.11.34,2,.13,2.14-.4a213.74,213.74,0,0,0,10.66-48.78q.7-7.19.91-14.41c0-.27-2.15,0-2.17.58Z"/><path class="cls-1" d="M216,89.18c-3.73-3.2-9.29-1.14-12,2.4-2.85,3.71-4.27,9.73-2.4,14.14,3.49,8.21,14.21,5.1,18.74-.36,3.9-4.71,4.07-11.62,4.28-17.42l-2.18.38,1.62,7.54.81,3.77c.21.94.53,1.75.81,2.65.41,1.35.61,2.8,1.57,3.91a5.46,5.46,0,0,0,1.95,1.41c1,.41,1.76,0,2.68-.4,6.76-2.8,11.59-8.58,14.26-15.29A45.6,45.6,0,0,0,249,80c.12-1.11-2.09-.82-2.2.17-1.18,10.72-5.91,22.13-16.79,26.06h.83a4.25,4.25,0,0,1-2.55-3c-.34-1.16-.8-2.33-1.07-3.49-.91-4-1.73-8-2.59-12-.21-.94-2.16-.49-2.19.38-.17,4.77-.34,9.75-2.4,14.15a12.42,12.42,0,0,1-6.88,6.27c-2.76,1-6,1-8.1-1.38-2.77-3.18-2.36-8.06-.92-11.73a10.23,10.23,0,0,1,4.05-5.31,5,5,0,0,1,6.17.33c.73.63,2.63-.44,1.67-1.26Z"/><path class="cls-1" d="M96.82,73.93c-2.15-1.42-1.51-4.15-.3-5.93a32.71,32.71,0,0,1,5-5.82c3.76-3.42,8.76-6.3,14-5.37,2.4.42,5.44,1.63,6.83,3.74s1,4.54.41,6.69c-1.44,5.26-4.84,10.16-8.11,14.45a107,107,0,0,1-13.44,14.22l1.73.32c.53-.56,1.09-1.09,1.67-1.6.21-.19.42-.36.63-.54.45-.37.42-.16-.23,0l-1.22-.22c0-.41.23-.31,0-.16a2.85,2.85,0,0,0-.48.44c-.68.61-1.36,1.19-2,1.77l1.73.32c3.1-2.64,5.48-6,8.62-8.64,1.14-.94,2.72-2.23,4.31-2,2.17.34,3.58,2.86,4.47,4.6,2.66,5.2,2.41,11.17.83,16.65a47.48,47.48,0,0,1-3.36,8.35,52.62,52.62,0,0,1-4.27,6.59,58.77,58.77,0,0,1-10.3,11.67,24.84,24.84,0,0,1-6.49,4,17.74,17.74,0,0,1-3.56,1c-1.24.23-2.59.63-3.41-.56-1.38-2-.84-4.81-.34-7a24.21,24.21,0,0,1,2.57-6.58,38.64,38.64,0,0,1,9.44-10.51c4.34-3.53,9.06-6.53,13.64-9.73,5.73-4,11.9-7.33,17.63-11.34L131,92.62a52.76,52.76,0,0,0-3.85,24.71c.06.68,1.71.12,2-.14A77.58,77.58,0,0,0,148,84.77l-2.17.28c-2.26,16.71-4.57,33.51-9.49,49.68-1.16,3.79-2.85,7.5-3.42,11.43s-2.22,7.57-3.61,11.29A145.82,145.82,0,0,1,119,178.79c-4,7.13-8.79,14-15.51,18.85l2-.13c-3.19-5.83-1-13,1.07-18.88a102,102,0,0,1,8.54-17.94c6.64-11.15,15-21.14,23.21-31.12,8.56-10.37,17.18-20.88,23.53-32.79A88,88,0,0,0,165.9,88c.62-1.54,1.19-3.09,1.72-4.67.29-.88.72-1.93,0-2.73-1.53-1.67-5-.08-6.43.86a6.06,6.06,0,0,0-2.6,3.11c-.54,1.61.23,3.2.79,4.68,2.31,6,9.17,11,7.73,18.11a20.62,20.62,0,0,1-4.21,8.23,27.5,27.5,0,0,1-2.63,3A7.26,7.26,0,0,1,158.4,120l1.51.12c-.72-3.71.39-7.62,1.85-11,1.6-3.73,3.62-7.35,5.41-11,3.57-7.25,7.18-14.48,11.18-21.5q3.43-6,7.29-11.82l-2.1.14-4.94,37.78c-.12.93,1.82.18,2.1-.14a69.26,69.26,0,0,1,21.49-16.85c.85-.43.16-1-.51-.87-7.21,1.05-14,6.32-16,13.52-1.33,5-.43,11.94,5.94,12.28,4.77.25,8.91-2.71,12.39-5.63.36-.31.2-.61-.2-.73a2,2,0,0,0-1.54.41c-2.67,2.25-5.93,5-9.65,4.77a5.27,5.27,0,0,1-4.79-3.85c-1.64-4.87.42-10.45,3.67-14.14A16.35,16.35,0,0,1,201.37,86l-.52-.87a71.69,71.69,0,0,0-22.17,17.42l2.09-.13,4.94-37.78c.12-.89-1.83-.26-2.09.13-9.22,13.75-16.16,28.8-23.53,43.58-1.85,3.7-3.16,8.22-2.35,12.36.11.55,1.25.22,1.51.13a11,11,0,0,0,3.83-3.08,29.7,29.7,0,0,0,4.45-6.17,13.9,13.9,0,0,0,1.92-7c-.11-2.86-1.51-5.46-3-7.81-1.59-2.51-3.61-4.88-4.74-7.65-.58-1.43-1.51-3.23-.95-4.8a4.89,4.89,0,0,1,3.76-3.09c1.1-.1,1.51.59,1.22,1.6-.5,1.73-1.17,3.43-1.83,5.1a86.42,86.42,0,0,1-4.3,9.2c-12.22,22.67-32,40-45.5,61.83a105.9,105.9,0,0,0-9.31,18.78c-2.3,6.17-4.93,14.1-1.51,20.35.36.65,1.52.18,2-.13,5.94-4.29,10.41-10.15,14.16-16.36a140.45,140.45,0,0,0,10.5-20.36c.79-2,1.53-4,2.28-6s1.58-3.89,2.22-5.87a44.26,44.26,0,0,0,1-5.24,50.93,50.93,0,0,1,1.92-5.87,194.27,194.27,0,0,0,6.31-24.92c1.79-9.46,3.1-19,4.39-28.54.12-.84-2-.36-2.17.28a76.18,76.18,0,0,1-18.4,31.83l2-.14a52,52,0,0,1,3.84-24.41c.3-.72-1.54-.3-1.75-.15-5.74,4-11.9,7.35-17.64,11.34-4.48,3.12-9.08,6.07-13.36,9.47A40.7,40.7,0,0,0,90,124.33a25.12,25.12,0,0,0-2.8,7.22c-.5,2.3-.93,5.15.56,7.2s4.47,1.06,6.43.61a24.81,24.81,0,0,0,7.47-3.18c4.74-3,8.55-7.22,11.91-11.65,1.79-2.36,3.46-4.81,5.11-7.27a37.86,37.86,0,0,0,3.84-8.17c2.11-5.84,3-12.49.51-18.36-1-2.29-2.48-5.15-5-6-2-.72-4.26,0-6,1-4.32,2.56-7,7-10.79,10.19-.37.31-.21.61.19.73a2,2,0,0,0,1.54-.41c.81-.69,1.65-1.38,2.42-2.11.25-.24.6-.47.6-.84s-1-.26-1.23-.22c-1.33.31-2.64,1.92-3.52,2.85s1.25.75,1.73.32A110.18,110.18,0,0,0,116.45,82,68.19,68.19,0,0,0,122,73.67a27.8,27.8,0,0,0,3.21-7.7c.51-2.44.41-5.15-1.43-7a13.23,13.23,0,0,0-7.59-3.38c-5.59-.68-11,1.83-15.24,5.31A34.07,34.07,0,0,0,94.5,68a5.92,5.92,0,0,0-1.28,3.32,3.9,3.9,0,0,0,1.57,3.47c.62.4,2.58-.47,2-.84Z"/><path class="cls-1" d="M194.06,120.76,191.67,123a18.28,18.28,0,0,0-5.67-3.85,15.14,15.14,0,0,0-6-1.32,14.28,14.28,0,0,0-6.92,1.79,12.94,12.94,0,0,0-5.1,4.84,12.54,12.54,0,0,0-1.8,6.46,12.73,12.73,0,0,0,1.87,6.63,13.17,13.17,0,0,0,5.16,4.93,14.85,14.85,0,0,0,7.23,1.8,12.38,12.38,0,0,0,8.07-2.69,10.61,10.61,0,0,0,3.9-7h-9.85v-3h13.32q0,7.17-4.26,11.38t-11.26,4.21q-8.58,0-13.58-5.84A15.53,15.53,0,0,1,163,131a16,16,0,0,1,2.21-8.17,15.62,15.62,0,0,1,6.05-5.91,17.62,17.62,0,0,1,8.69-2.13,19.46,19.46,0,0,1,7.4,1.41A22.29,22.29,0,0,1,194.06,120.76Z"/><path class="cls-1" d="M212.24,115.57l14.41,30.9h-3.33l-4.86-10.16H205.15l-4.82,10.16h-3.44l14.6-30.9Zm-.39,6.57-5.29,11.18h10.56Z"/><path class="cls-1" d="M229.29,115.57h3.09v27.92h11.89v3h-15Z"/><path class="cls-1" d="M247,115.57h3.09v27.92H262v3H247Z"/><path class="cls-1" d="M264.75,115.57h17.71v3H267.84v9.68h14.5v3h-14.5v12.14h14.5v3H264.75Z"/><path class="cls-1" d="M285.82,115.57H292a36.11,36.11,0,0,1,7,.43,8,8,0,0,1,4.48,2.7,7.7,7.7,0,0,1,1.72,5.1,8.2,8.2,0,0,1-1.19,4.44,7.41,7.41,0,0,1-3.39,2.89,15.73,15.73,0,0,1-6.09,1l11.11,14.34h-3.82l-11.11-14.34H288.9v14.34h-3.08Zm3.08,3v10.5l5.33,0a13.3,13.3,0,0,0,4.57-.58,4.85,4.85,0,0,0,2.32-1.88,5.29,5.29,0,0,0,.83-2.89,5,5,0,0,0-.84-2.83,4.78,4.78,0,0,0-2.21-1.82,13.59,13.59,0,0,0-4.55-.54Z"/><path class="cls-1" d="M307.17,115.57h3.55l7.91,12.75,7.78-12.75H330l-9.79,16.14v14.76h-3V131.71Z"/></svg>
