<svg id="Layer_10" data-name="Layer 10" xmlns="http://www.w3.org/2000/svg" width="203" height="90.5" viewBox="0 0 203 90.5"><defs><style>.cls-1{fill:#fff;}.cls-2,.cls-3{fill:none;stroke:#000;}.cls-2{stroke-width:10px;}.cls-3{stroke-width:8px;}.cls-4{fill:#f4f2f2;}.cls-5,.cls-6{isolation:isolate;}.cls-6{font-size:60px;font-family:Helvetica-Bold, Helvetica;font-weight:700;}</style></defs><g id="Group_12" data-name="Group 12"><g id="Group_10" data-name="Group 10"><g id="Rectangle_41" data-name="Rectangle 41"><rect class="cls-1" x="114" y="1.5" width="89" height="89" rx="26"/><rect class="cls-2" x="119" y="6.5" width="79" height="79" rx="21"/></g><g id="Ellipse_10" data-name="Ellipse 10"><circle class="cls-1" cx="159" cy="49.5" r="20"/><circle class="cls-3" cx="159" cy="49.5" r="16"/></g><g id="Path_12" data-name="Path 12"><path class="cls-4" d="M177.88,29.76a5.38,5.38,0,1,1,5.38-5.38A5.39,5.39,0,0,1,177.88,29.76Z"/><path d="M177.88,21.5a2.88,2.88,0,1,0,2.88,2.88,2.88,2.88,0,0,0-2.88-2.88m0-5A7.88,7.88,0,1,1,170,24.38,7.88,7.88,0,0,1,177.88,16.5Z"/></g></g><g id="Group_11" data-name="Group 11"><g id="Rectangle_42" data-name="Rectangle 42"><rect class="cls-1" y="1.5" width="89" height="89" rx="26"/><rect class="cls-2" x="5" y="6.5" width="79" height="79" rx="21"/></g><g id="f" class="cls-5"><text class="cls-6" transform="translate(35.02 52.5)">f</text></g></g></g></svg>
